<svg width="599" height="495" viewBox="0 0 599 495" fill="none" xmlns="http://www.w3.org/2000/svg">
<path d="M281.923 103.226C281.923 103.226 287.011 112.232 291.29 116.043C295.568 119.969 309.445 125.164 309.445 125.164L309.329 121.7L297.419 113.387L289.555 102.764L281.923 103.226Z" fill="#DF9F86"/>
<path d="M309.445 121.816C309.676 122.047 310.37 122.855 312.336 123.548C314.186 124.241 318.349 124.472 317.077 126.088C314.995 126.55 312.683 127.358 312.683 127.358C311.411 127.474 309.56 126.55 308.52 125.626L305.629 122.624C305.629 122.624 305.86 120.661 305.86 120.546L306.785 120.43C307.595 121.008 308.52 121.47 309.445 121.816Z" fill="#DF9F86"/>
<path d="M309.792 122.855C309.792 122.855 309.792 122.971 309.907 123.086C309.676 123.086 309.329 123.202 309.098 123.202C308.173 122.971 307.132 122.74 306.207 122.509C306.438 121.932 306.67 121.239 306.67 121.123L313.376 121.354C313.376 121.354 313.723 122.162 312.336 122.509C311.064 122.971 309.792 122.855 309.792 122.855Z" fill="#DF9F86"/>
<path d="M168.021 292.589C168.021 292.589 130.439 212.225 67.9946 208.531C27.5216 271.806 91.3533 327.691 91.3533 327.691L165.014 352.516L168.021 292.589Z" fill="#F3D154"/>
<path d="M129.976 239.591L114.712 275.847L69.4979 208.646C69.0353 208.646 68.5728 208.531 67.9946 208.531C67.8789 208.761 67.6477 208.992 67.532 209.223L91.7002 245.133L55.5058 240.514C55.5058 240.861 55.3901 241.207 55.3901 241.554L55.2745 242.477L93.3191 247.442L133.676 307.369L69.7291 301.134C70.1917 301.826 70.6542 302.519 71.0012 303.212L135.064 309.563L163.742 352.169L165.014 352.631L165.13 350.668L116.1 277.925L131.595 241.207C131.017 240.63 130.554 240.053 129.976 239.591Z" fill="white"/>
<path d="M149.519 330.808C149.519 330.808 84.9932 294.206 46.4861 325.728C59.5531 426.414 188.72 416.83 188.72 416.83L149.519 330.808Z" fill="#4D888B"/>
<path d="M46.3705 325.728C46.3705 326.074 46.4861 326.536 46.4861 326.882L137.377 369.489L88.3467 393.621C89.0405 394.083 89.6187 394.43 90.3125 394.892L139.69 370.644L175.19 387.271L173.918 384.5L104.767 352.054L90.4282 313.142C89.7343 313.142 89.0405 313.027 88.3467 313.027L102.223 350.899L47.1799 325.035C46.9486 325.266 46.7174 325.497 46.3705 325.728Z" fill="#2F666A"/>
<path d="M407.158 305.983C407.158 305.983 414.906 218.576 473.187 198.6C541.528 279.657 461.623 346.511 461.623 346.511L407.158 305.983Z" fill="#BBD8C8"/>
<path d="M473.187 198.6C473.418 198.831 473.649 199.178 473.881 199.409L444.162 293.859L500.824 269.15C500.824 269.842 500.824 270.535 500.708 271.228L443.352 296.284L434.795 323.534L433.292 322.264L450.406 267.88L427.973 239.937C428.32 239.36 428.551 238.782 428.898 238.205L451.1 265.801L472.146 199.062C472.493 198.831 472.84 198.716 473.187 198.6Z" fill="white"/>
<path d="M463.358 272.498C486.023 257.488 522.911 240.976 559.799 254.832C570.322 325.035 493.77 348.705 493.77 348.705L420.688 341.777C420.688 341.777 425.197 297.785 463.358 272.498Z" fill="#4D888B"/>
<path d="M494.348 257.834L493.539 295.014L558.411 254.486C558.874 254.601 559.336 254.832 559.683 254.947C559.683 255.178 559.799 255.525 559.799 255.756L524.992 277.463L558.18 287.278C558.064 287.624 557.949 287.855 557.949 288.201L557.718 289.01L523.026 278.733L465.092 314.989L522.68 334.157C521.986 334.619 521.408 335.08 520.714 335.427L463.011 316.26L421.844 342.008L420.572 341.893L421.266 340.161L491.573 296.169L492.383 258.527C493.076 258.296 493.655 258.065 494.348 257.834Z" fill="#2F666A"/>
<path d="M450.638 333.81C450.638 333.81 520.02 324.111 542.916 365.217C517.591 410.71 473.649 415.791 438.611 410.941C439.652 403.667 435.952 396.046 430.054 391.196C427.048 382.998 422.538 375.262 418.375 367.872C418.028 367.18 417.565 366.487 417.103 365.794L450.638 333.81Z" fill="#243E5D"/>
<path d="M421.728 373.646C421.381 373.068 421.035 372.491 420.688 371.914L482.438 368.103L508.572 338.891C509.15 339.122 509.844 339.352 510.422 339.583L484.982 367.988L542.338 364.408C542.569 364.755 542.685 364.986 542.916 365.332C542.685 365.679 542.569 366.025 542.338 366.256L447.631 372.029L482.322 410.248C481.628 410.364 480.935 410.479 480.241 410.71L445.318 372.26L421.728 373.646Z" fill="#2F666A"/>
<path d="M535.053 120.2L539.216 128.513L530.427 126.55L500.13 116.967L535.053 120.2Z" fill="#BBD8C7"/>
<path d="M539.216 128.513L524.183 127.589L527.883 125.742L539.216 128.513Z" fill="#86C0C4"/>
<path d="M535.053 120.2L537.712 112.232L500.13 116.967L535.053 120.2Z" fill="url(#paint0_linear_6010_18332)"/>
<path d="M500.13 116.967L530.427 126.55L525.917 138.097L500.13 116.967Z" fill="url(#paint1_linear_6010_18332)"/>
<path d="M535.978 136.827C536.093 136.827 536.093 136.711 536.209 136.711C536.44 136.365 536.44 136.018 536.093 135.672C535.168 134.864 534.128 134.171 533.087 133.478C532.74 133.247 532.277 133.363 532.162 133.709C531.93 134.055 532.046 134.517 532.393 134.633C533.318 135.21 534.243 135.903 535.168 136.596C535.4 136.942 535.631 136.942 535.978 136.827Z" fill="#86C0C4"/>
<path d="M524.877 214.073C524.645 213.726 524.761 213.265 525.108 213.149C526.958 211.994 528.808 210.493 530.312 208.646C530.543 208.299 531.005 208.299 531.352 208.53C531.699 208.761 531.699 209.223 531.468 209.57C529.849 211.533 527.999 213.149 525.917 214.419C525.57 214.535 525.108 214.419 524.877 214.073ZM532.971 206.106C532.624 205.875 532.509 205.528 532.74 205.182C533.896 203.219 534.706 201.025 535.284 198.716C535.4 198.369 535.747 198.139 536.093 198.254C536.44 198.369 536.672 198.716 536.556 199.062C535.978 201.487 535.053 203.681 533.896 205.875C533.781 205.99 533.665 206.106 533.549 206.106C533.434 206.221 533.202 206.221 532.971 206.106ZM536.556 195.367C536.209 195.367 535.862 195.021 535.862 194.559V194.213C535.978 192.019 535.862 189.825 535.515 187.631C535.4 187.285 535.747 186.938 536.093 186.823C536.44 186.707 536.787 187.054 536.903 187.4C537.25 189.71 537.365 192.134 537.25 194.328V194.675C537.25 194.906 537.134 195.136 536.903 195.252C536.903 195.367 536.672 195.367 536.556 195.367ZM535.631 184.052C535.284 184.167 534.821 183.936 534.821 183.59C534.243 181.512 533.434 179.202 532.509 176.893C532.393 176.547 532.509 176.085 532.856 175.969C533.202 175.854 533.665 175.969 533.781 176.316C534.821 178.625 535.515 180.934 536.093 183.128C536.209 183.474 535.978 183.821 535.747 183.936C535.747 184.052 535.631 184.052 535.631 184.052ZM531.584 173.429C531.237 173.544 530.774 173.429 530.658 173.083C530.543 172.852 530.427 172.736 530.427 172.505C529.733 172.852 528.924 173.083 528.114 173.313C527.768 173.429 527.305 173.198 527.189 172.852C527.074 172.505 527.305 172.043 527.652 171.928C528.346 171.697 529.04 171.466 529.618 171.235C528.924 169.85 528.114 168.348 527.189 166.847C526.958 166.501 527.074 166.039 527.421 165.924C527.768 165.693 528.23 165.808 528.346 166.155C529.271 167.771 530.08 169.272 530.89 170.773C531.93 170.311 532.856 169.734 533.781 169.157C534.128 168.926 534.59 169.041 534.706 169.388C534.937 169.734 534.821 170.196 534.475 170.311C533.549 171.004 532.509 171.582 531.352 172.043C531.468 172.159 531.468 172.39 531.584 172.505C532.162 172.736 531.931 173.198 531.584 173.429ZM537.25 167.425C537.019 167.194 537.019 166.732 537.25 166.386C538.291 165.346 539.1 164.192 539.794 163.037C540.256 162.344 540.603 161.536 540.95 160.728C541.066 160.381 541.528 160.15 541.875 160.381C542.222 160.497 542.453 160.959 542.222 161.305C541.875 162.229 541.413 163.037 540.95 163.845C540.141 165.115 539.216 166.386 538.175 167.425C538.175 167.425 538.059 167.54 537.944 167.54C537.712 167.656 537.481 167.656 537.25 167.425ZM523.836 174.122C521.292 174.353 518.864 174.122 516.551 173.544C516.204 173.429 515.973 173.083 516.088 172.736C516.204 172.39 516.551 172.159 516.898 172.274C519.095 172.852 521.408 172.967 523.72 172.852C524.067 172.852 524.414 173.083 524.53 173.544C524.53 173.891 524.414 174.122 524.183 174.237C523.952 174.006 523.836 174.122 523.836 174.122ZM542.685 157.61C542.338 157.495 541.991 157.148 542.107 156.802C542.453 154.608 542.569 152.299 542.222 149.874C542.107 149.528 542.453 149.181 542.8 149.066C543.147 148.95 543.494 149.297 543.61 149.643C543.957 152.183 543.957 154.608 543.494 156.917C543.494 157.148 543.263 157.379 543.147 157.379C543.032 157.61 542.8 157.61 542.685 157.61ZM512.272 171.928C511.694 171.582 511.116 171.351 510.653 171.004C509.15 169.965 507.762 168.695 506.606 167.194C506.375 166.847 506.49 166.386 506.722 166.155C507.069 165.924 507.531 166.039 507.762 166.27C508.687 167.656 509.959 168.81 511.347 169.734C511.81 170.08 512.388 170.311 512.85 170.658C513.197 170.889 513.313 171.235 513.197 171.582C513.082 171.697 512.966 171.812 512.85 171.928C512.735 172.043 512.503 172.043 512.272 171.928ZM525.108 163.153C523.605 160.843 522.217 159.111 520.714 157.726C520.367 157.495 520.367 157.033 520.714 156.686C520.945 156.456 521.408 156.34 521.754 156.686C523.258 158.072 524.761 159.92 526.38 162.344C526.611 162.691 526.496 163.153 526.149 163.268C526.149 163.268 526.149 163.268 526.033 163.268C525.686 163.614 525.339 163.499 525.108 163.153ZM542.107 146.295C541.76 146.41 541.297 146.179 541.181 145.833C540.835 144.794 540.372 143.87 539.909 142.946C539.331 141.791 538.637 140.752 537.944 139.713C537.712 139.367 537.828 138.905 538.059 138.674C538.406 138.443 538.869 138.443 539.1 138.789C539.909 139.829 540.603 140.983 541.181 142.138C541.644 143.177 542.107 144.216 542.453 145.255C542.685 145.717 542.453 146.064 542.107 146.295ZM505.565 163.614C505.218 163.73 504.756 163.499 504.756 163.153C504.293 161.19 504.409 159.227 505.334 157.495C505.681 156.917 506.028 156.34 506.49 155.878C506.722 155.647 507.184 155.647 507.531 155.878C507.762 156.109 507.762 156.571 507.531 156.917C507.184 157.264 506.837 157.726 506.606 158.303C505.912 159.689 505.681 161.19 506.143 162.922C506.259 163.268 506.028 163.614 505.797 163.73C505.681 163.614 505.565 163.614 505.565 163.614ZM517.36 155.532C515.394 154.608 512.966 154.377 510.885 154.954C510.538 155.07 510.075 154.839 510.075 154.493C509.959 154.146 510.191 153.684 510.538 153.684C512.966 153.107 515.741 153.338 517.938 154.377C518.285 154.493 518.401 154.955 518.285 155.301C518.17 155.416 518.054 155.532 517.938 155.647C517.823 155.647 517.591 155.647 517.36 155.532Z" fill="#86C0C4"/>
<path d="M521.87 216.036C522.217 215.92 522.333 215.574 522.217 215.227C522.101 214.881 521.754 214.65 521.292 214.766C520.251 215.112 519.095 215.227 517.938 215.343C517.591 215.343 517.245 215.689 517.245 216.036C517.245 216.382 517.591 216.729 517.938 216.729C519.21 216.613 520.367 216.498 521.523 216.151C521.754 216.036 521.87 216.036 521.87 216.036Z" fill="#86C0C4"/>
<path d="M229.886 81.8649L205.371 68.4709L192.883 65.9307L183.4 67.3162L229.886 81.8649Z" fill="url(#paint2_linear_6010_18332)"/>
<path d="M229.886 81.8648L183.979 70.0873L183.4 67.3162" fill="#BBD8C7"/>
<path d="M182.707 77.939V78.0544L184.672 85.2133L229.771 81.8648L182.707 77.939Z" fill="#86C0C4"/>
<path d="M173.918 73.7824L180.509 68.5864L229.54 81.8649L187.332 80.5948L173.918 73.7824Z" fill="url(#paint3_linear_6010_18332)"/>
<path d="M70.7699 164.538C72.2732 163.961 73.7765 163.383 75.1641 162.575C75.511 162.46 75.8579 162.575 76.0892 162.806C76.2048 163.152 76.0892 163.499 75.8579 163.73C74.3546 164.538 72.8514 165.115 71.2324 165.693C70.6542 165.924 70.0761 166.039 69.4979 166.27C69.2666 166.385 69.0353 166.27 68.9197 166.154C68.8041 166.039 68.6884 165.924 68.6884 165.808C68.5728 165.462 68.8041 165.115 69.151 165C69.7292 164.884 70.3073 164.769 70.7699 164.538Z" fill="#86C0C4"/>
<path d="M160.504 68.8174C162.586 69.0483 164.783 69.3947 167.096 69.8566C167.442 69.972 167.674 70.3184 167.674 70.6648C167.558 71.0112 167.211 71.2422 166.864 71.2422C164.552 70.7803 162.354 70.4339 160.273 70.203C160.157 70.203 160.042 70.0875 159.926 70.0875C159.695 69.972 159.579 69.7411 159.695 69.5102C159.81 69.0483 160.157 68.8174 160.504 68.8174Z" fill="#86C0C4"/>
<path d="M149.403 69.3946C149.287 69.2792 149.172 69.0482 149.172 68.8173C149.172 68.4709 149.519 68.1245 149.866 68.1245C151.947 68.1245 154.26 68.24 156.573 68.3554C156.919 68.3554 157.266 68.7018 157.151 69.0482C157.151 69.3946 156.804 69.741 156.457 69.6256C154.144 69.3946 151.947 69.3946 149.866 69.3946C149.634 69.5101 149.519 69.5101 149.403 69.3946Z" fill="#86C0C4"/>
<path d="M83.6056 156.455C83.8369 156.224 84.2994 156.224 84.5307 156.455C84.762 156.686 84.762 157.148 84.5307 157.379C82.9118 158.996 81.1772 160.381 79.327 161.651C79.0958 161.767 78.7488 161.767 78.5176 161.651C78.4019 161.651 78.4019 161.536 78.4019 161.536C78.1707 161.189 78.2863 160.843 78.6332 160.612C80.3678 159.458 82.1023 158.072 83.6056 156.455Z" fill="#86C0C4"/>
<path d="M86.3809 154.608C86.1496 154.377 86.034 153.915 86.2652 153.684C86.6122 153.223 86.9591 152.761 87.306 152.299C88.2311 151.029 89.1562 149.643 89.85 148.258C90.0813 147.911 90.4282 147.796 90.7751 148.027C91.122 148.258 91.2376 148.604 91.0064 148.95C90.1969 150.336 89.3874 151.722 88.3467 153.107C87.9998 153.569 87.6529 154.031 87.1903 154.608C87.0747 154.724 86.7278 154.839 86.3809 154.608Z" fill="#86C0C4"/>
<path d="M92.0471 145.602C92.0471 145.602 91.9315 145.602 91.9315 145.486C91.7002 145.255 91.5846 145.024 91.7002 144.678C92.5097 142.715 93.2035 140.752 93.7817 138.443C93.8973 138.096 94.2442 137.865 94.5911 137.981C94.938 138.096 95.1693 138.443 95.0537 138.789C94.4755 141.099 93.7817 143.177 92.9722 145.14C92.7409 145.486 92.394 145.717 92.0471 145.602Z" fill="#86C0C4"/>
<path d="M109.624 88.7928C109.046 89.4856 108.583 90.1783 108.005 90.8711C107.196 91.9103 106.502 93.065 105.808 94.1042C105.577 94.4506 105.23 94.566 104.883 94.3351C104.652 94.1042 104.536 93.7578 104.767 93.4114C105.461 92.2567 106.27 91.1021 107.08 90.0629C107.658 89.3701 108.121 88.6773 108.699 87.9845C108.93 87.7536 109.277 87.6381 109.624 87.869C109.855 88.1 109.855 88.5618 109.624 88.7928Z" fill="#86C0C4"/>
<path d="M103.842 97.5683C102.801 99.5312 101.992 101.494 101.182 103.572C101.067 103.919 100.72 104.15 100.373 103.919C100.257 103.919 100.257 103.919 100.257 103.803C100.026 103.688 99.9104 103.342 100.026 102.995C100.836 100.917 101.645 98.8384 102.686 96.8755C102.801 96.5291 103.264 96.4136 103.611 96.6446C103.958 96.76 104.073 97.2219 103.842 97.5683Z" fill="#86C0C4"/>
<path d="M117.14 81.403C115.406 82.7886 113.787 84.2897 112.284 85.9062C112.052 86.1371 111.705 86.1371 111.358 86.0216C111.358 86.0216 111.358 86.0216 111.243 86.0216C111.012 85.7907 111.012 85.3288 111.243 85.0979C112.746 83.4814 114.481 81.9804 116.215 80.4793C116.447 80.2484 116.909 80.2484 117.14 80.5948C117.487 80.7102 117.372 81.1721 117.14 81.403Z" fill="#86C0C4"/>
<path d="M129.398 73.7823C129.167 73.8978 128.935 73.8978 128.704 73.6668C128.588 73.5514 128.588 73.5514 128.473 73.4359C128.357 73.0895 128.473 72.7431 128.82 72.5122C130.901 71.5885 132.983 70.7802 135.18 70.2029C135.527 70.0874 135.874 70.3184 135.989 70.6648C136.105 71.0111 135.874 71.3575 135.527 71.473C133.445 72.1658 131.364 72.9741 129.398 73.7823Z" fill="#86C0C4"/>
<path d="M96.5569 124.818C96.4413 124.818 96.3257 124.702 96.21 124.702C95.9788 124.587 95.8631 124.356 95.9788 124.125L96.0944 123.317C96.3257 121.354 96.5569 119.507 96.7882 117.544C96.7882 117.197 97.1351 116.966 97.482 116.966C97.829 116.966 98.0602 117.313 98.0602 117.659C97.829 119.622 97.5977 121.469 97.3664 123.432L97.2508 124.241C97.2508 124.587 96.9039 124.933 96.5569 124.818Z" fill="#86C0C4"/>
<path d="M120.263 78.9784C120.031 79.0938 119.684 79.0938 119.453 78.9784L119.337 78.8629C119.106 78.5165 119.222 78.1701 119.453 77.9392C121.303 76.6691 123.269 75.3989 125.235 74.3598C125.582 74.2443 125.929 74.3597 126.16 74.5907C126.276 74.9371 126.16 75.2835 125.929 75.5144C123.963 76.5536 121.997 77.7082 120.263 78.9784Z" fill="#86C0C4"/>
<path d="M96.21 127.474C96.5569 127.474 96.7882 127.82 96.7882 128.166C96.4413 130.707 96.0944 132.9 95.7475 134.748C95.6319 135.094 95.2849 135.325 94.938 135.325C94.8224 135.325 94.7068 135.21 94.7068 135.21C94.4755 135.094 94.3598 134.863 94.4755 134.517C94.8224 132.67 95.1693 130.591 95.5162 127.935C95.5162 127.705 95.8631 127.474 96.21 127.474Z" fill="#86C0C4"/>
<path d="M65.3349 166.039C65.6818 165.924 66.0288 166.155 66.1444 166.617C66.26 166.963 66.0288 167.309 65.5662 167.425C63.4847 167.887 61.2876 168.118 58.8593 168.233C58.7436 168.233 58.5123 168.233 58.3967 168.118C58.2811 168.002 58.1654 167.887 58.1654 167.656C58.1654 167.309 58.3967 166.963 58.7436 166.963C61.172 166.617 63.3691 166.386 65.3349 166.039Z" fill="#86C0C4"/>
<path d="M99.5635 106.459C99.9104 106.574 100.142 106.921 100.026 107.267C99.4479 109.23 99.101 111.309 98.6384 113.733C98.6384 114.08 98.2915 114.311 97.9446 114.311C97.8289 114.311 97.7133 114.195 97.7133 114.195C97.482 114.08 97.3664 113.849 97.482 113.502C97.9446 111.078 98.2915 108.884 98.8697 106.921C98.8697 106.574 99.2166 106.344 99.5635 106.459Z" fill="#86C0C4"/>
<path d="M143.39 68.5864C144.199 68.4709 144.893 68.4709 145.703 68.3555C146.05 68.3555 146.397 68.5864 146.397 68.9328C146.397 69.2792 146.165 69.6256 145.818 69.6256C145.009 69.6256 144.315 69.7411 143.506 69.8565C142.118 69.972 140.73 70.2029 139.227 70.5493C138.996 70.5493 138.88 70.5493 138.649 70.4338C138.533 70.3184 138.418 70.2029 138.418 70.0874C138.302 69.7411 138.533 69.3947 138.88 69.2792C140.499 68.9328 142.002 68.7019 143.39 68.5864Z" fill="#86C0C4"/>
<path d="M394.785 290.165C400.567 294.552 404.152 301.596 403.342 309.563C402.301 319.493 394.322 327.691 384.378 328.73C371.426 330.116 360.325 320.07 360.325 307.369C360.325 300.326 363.679 294.09 368.998 290.165H322.512C315.458 290.165 309.792 295.822 309.792 302.866V346.165C305.282 342.355 299.269 340.277 292.793 341.085C283.08 342.355 275.216 350.207 274.176 360.021C272.672 373.069 282.848 384.153 295.684 384.153C301.119 384.153 305.976 382.19 309.792 378.842V420.409C309.792 427.453 315.458 433.111 322.512 433.111H440.346C447.4 433.111 453.066 427.453 453.066 420.409V302.866C453.066 295.822 447.4 290.165 440.346 290.165H394.785Z" fill="#F3D154"/>
<path d="M440.346 93.2959H322.512C315.458 93.2959 309.792 98.9537 309.792 105.997V147.796C314.186 143.523 320.315 140.983 327.137 141.676C337.082 142.715 345.177 150.567 346.217 160.497C347.721 173.429 337.545 184.398 324.94 184.398C319.043 184.398 313.723 181.973 309.792 178.163V236.357H368.304C362.985 240.745 359.747 247.789 360.672 255.409C361.828 265.224 369.692 273.075 379.521 274.115C392.472 275.5 403.458 265.455 403.458 252.869C403.458 246.172 400.451 240.283 395.71 236.357H440.346C447.4 236.357 453.066 230.7 453.066 223.656V105.997C453.066 98.9537 447.284 93.2959 440.346 93.2959Z" fill="#243E5D"/>
<path d="M308.057 187.862C301.466 187.169 295.337 189.479 290.943 193.52V150.336C290.943 143.293 285.277 137.635 278.223 137.635H160.504C153.45 137.635 147.784 143.293 147.784 150.336V280.581H203.984C199.127 276.309 196.236 269.958 196.699 262.915C197.392 252.754 205.487 244.44 215.547 243.286C228.383 241.9 239.369 251.945 239.369 264.416C239.369 270.882 236.478 276.54 231.968 280.465H290.943V224.58C294.759 228.16 299.963 230.353 305.629 230.353C318.233 230.353 328.409 219.384 326.906 206.452C325.865 196.869 317.886 189.017 308.057 187.862Z" fill="#86C0C4"/>
<path d="M297.997 99.9931L292.909 101.494L291.521 96.0673L299.847 95.6055L297.997 99.9931Z" fill="#DF9F86"/>
<path d="M298.691 101.263C299.037 101.84 299.384 102.418 299.731 102.533C303.085 103.111 308.867 98.0301 308.867 98.0301L308.751 94.7971L304.935 92.3723L300.309 94.2198C299.037 94.6816 298.228 95.8363 297.881 97.2219C297.765 98.492 297.997 99.993 298.691 101.263Z" fill="#E7B48F"/>
<path d="M302.507 93.9889C303.316 93.8735 305.051 92.9497 305.282 93.758C305.397 94.3353 306.323 96.2982 306.554 96.991C307.248 98.4921 309.214 101.032 311.526 99.8776C312.683 99.3003 313.145 97.6838 313.145 96.8756C313.145 96.0673 312.683 95.259 312.104 94.6817C310.717 93.2961 308.404 91.5641 308.057 90.6404C307.71 89.0239 306.091 87.8692 304.819 88.562C303.432 89.2548 301.697 90.8714 300.772 92.1415C300.194 92.8343 299.731 93.758 299.5 94.6817L302.507 93.9889Z" fill="#282E53"/>
<path d="M301.697 92.4878C302.16 92.7187 302.391 93.4115 302.275 93.9888C302.16 94.5661 301.581 94.9125 301.119 94.7971C300.656 94.5661 300.425 93.8733 300.541 93.296C300.656 92.6032 301.235 92.2568 301.697 92.4878Z" fill="#E7B48F"/>
<path d="M292.562 102.764L295.106 109.923L288.746 115.234V102.764H292.562Z" fill="#2F666A"/>
<path d="M279.495 134.517C279.495 134.517 281.576 136.48 286.433 137.75C287.474 137.981 288.63 137.635 288.63 139.367C286.317 139.367 282.733 139.367 282.733 139.367L277.876 138.559V139.367H275.216C275.216 139.367 274.522 135.095 276.026 134.517C277.529 134.517 279.495 134.517 279.495 134.517Z" fill="#282E53"/>
<path d="M279.032 131.4L279.61 134.517C278.685 135.21 277.413 135.21 276.373 134.633L276.141 134.517L276.373 131.4H279.032Z" fill="#E7B48F"/>
<path d="M233.703 131.515L230.812 130.938C230.349 130.014 230.349 128.744 231.043 127.936L231.158 127.82L234.049 128.167L233.703 131.515Z" fill="#E7B48F"/>
<path d="M267.7 116.851C267.7 116.851 271.4 116.736 278.685 112.233C273.713 121.008 275.332 132.901 275.332 132.901H279.495L289.787 105.997L265.156 104.727V117.082L267.7 116.851Z" fill="#282E53"/>
<path d="M294.528 95.6055C294.528 95.6055 281.692 82.327 256.136 99.1849C259.952 103.688 267.122 112.233 267.122 112.233L280.42 107.729L290.48 110.501L294.528 95.6055Z" fill="#4D888B"/>
<path d="M280.42 107.729C280.42 107.729 281.114 118.814 283.195 124.241C285.392 129.552 295.684 139.482 295.684 139.482L297.187 136.249L290.018 123.663L290.48 110.616L280.42 107.729Z" fill="#E7B48F"/>
<path d="M297.072 136.365C297.072 136.711 297.419 137.635 298.922 139.136C300.309 140.521 303.894 142.484 302.044 143.408C299.963 142.946 297.534 142.715 297.534 142.715C296.378 142.369 295.106 140.637 294.528 139.367L293.256 135.441C293.256 135.441 294.296 133.709 294.412 133.594L295.221 133.824C295.8 134.748 296.378 135.672 297.072 136.365Z" fill="#E7B48F"/>
<path d="M297.072 137.404C297.072 137.404 297.072 137.519 297.072 137.75C296.84 137.635 296.609 137.635 296.262 137.519C295.453 136.942 294.643 136.249 293.949 135.672C294.412 135.326 294.99 134.748 294.99 134.633L300.888 137.635C300.888 137.635 300.888 138.443 299.5 138.328C298.112 138.097 297.072 137.404 297.072 137.404Z" fill="#E7B48F"/>
<path d="M256.136 99.1848C256.136 99.1848 249.314 104.496 248.851 111.193C248.388 117.89 255.327 130.36 255.327 130.36C255.327 130.36 247.695 123.894 233.703 127.589C232.777 131.284 232.777 131.977 232.777 131.977C232.777 131.977 261.687 142.484 265.965 137.288C270.244 132.092 267.006 112.117 267.006 112.117L256.136 99.1848Z" fill="#243E5D"/>
<path d="M231.159 130.938C231.159 130.938 228.961 131.631 228.499 138.097C228.383 139.367 227.921 139.136 227.458 139.482C226.996 137.519 225.955 133.363 225.955 133.363L227.574 129.09L226.649 128.398L228.152 125.973C228.152 125.973 231.159 126.319 231.505 127.82C231.39 129.09 231.159 130.938 231.159 130.938Z" fill="#282E53"/>
<path d="M522.448 438.768L474.921 291.319H477.581L525.108 438.768H522.448Z" fill="#F3D154"/>
<path d="M497.818 438.768L450.291 291.319H453.066L500.593 438.768H497.818Z" fill="#F3D154"/>
<path d="M489.954 329.538V331.732H464.514L464.052 329.538H489.954Z" fill="#F3D154"/>
<path d="M484.635 315.336V317.53L459.195 317.414L458.732 315.22L484.635 315.336Z" fill="#F3D154"/>
<path d="M480.356 301.018V303.212H454.801L454.454 301.018H480.356Z" fill="#F3D154"/>
<path d="M494.58 344.087V346.281H469.14L468.677 344.087H494.58Z" fill="#F3D154"/>
<path d="M498.858 358.52V360.714H473.418L473.071 358.52H498.858Z" fill="#F3D154"/>
<path d="M503.368 373.531L504.409 375.724H478.969L478.506 373.531H503.368Z" fill="#F3D154"/>
<path d="M508.225 388.656L509.266 390.85L483.71 390.735L483.363 388.541L508.225 388.656Z" fill="#F3D154"/>
<path d="M512.619 403.321L513.66 405.514H488.22L487.757 403.321H512.619Z" fill="#F3D154"/>
<path d="M516.319 418.331L517.36 420.525H491.92L491.458 418.331H516.319Z" fill="#F3D154"/>
<path d="M404.036 438.768L451.447 291.319H448.787L401.261 438.768H404.036Z" fill="#243E5D"/>
<path d="M428.551 438.768L476.078 291.319H473.418L425.891 438.768H428.551Z" fill="#243E5D"/>
<path d="M436.53 329.538V331.732H461.97L462.433 329.538H436.53Z" fill="#243E5D"/>
<path d="M441.734 315.336V317.53L467.174 317.414L467.636 315.22L441.734 315.336Z" fill="#243E5D"/>
<path d="M446.128 301.018V303.212H471.568L472.031 301.018H446.128Z" fill="#243E5D"/>
<path d="M431.904 344.087V346.281H457.345L457.691 344.087H431.904Z" fill="#243E5D"/>
<path d="M427.51 358.52V360.714H452.95L453.413 358.52H427.51Z" fill="#243E5D"/>
<path d="M423 373.531L421.96 375.724H447.4L447.862 373.531H423Z" fill="#243E5D"/>
<path d="M418.259 388.656L417.219 390.85L442.659 390.735L443.121 388.541L418.259 388.656Z" fill="#243E5D"/>
<path d="M413.749 403.321L412.709 405.514H438.149L438.611 403.321H413.749Z" fill="#243E5D"/>
<path d="M410.049 418.331L409.008 420.525H434.448L434.911 418.331H410.049Z" fill="#243E5D"/>
<path d="M455.147 296.284C455.147 296.284 452.835 298.478 447.515 299.748C446.359 300.094 445.087 299.632 445.087 301.595C447.515 301.595 451.447 301.595 451.447 301.595L456.766 300.672V301.595H459.657C459.657 301.595 460.467 296.861 458.732 296.284C457.345 296.284 455.147 296.284 455.147 296.284Z" fill="#282E53"/>
<path d="M455.494 292.936L455.147 296.284C456.188 296.977 457.576 297.092 458.732 296.4L458.963 296.284L460.12 292.936H455.494Z" fill="#E7B48F"/>
<path d="M471.221 296.284C471.221 296.284 468.908 298.478 463.589 299.748C462.433 300.094 461.161 299.632 461.161 301.595C463.589 301.595 467.521 301.595 467.521 301.595L472.84 300.672V301.595H475.731C475.731 301.595 476.54 296.861 474.806 296.284C473.302 296.284 471.221 296.284 471.221 296.284Z" fill="#282E53"/>
<path d="M471.452 292.936L471.105 296.284C472.146 296.977 473.534 297.092 474.69 296.4L474.921 296.284L476.078 292.936H471.452Z" fill="#E7B48F"/>
<path d="M465.67 181.858L466.596 187.4L471.568 185.206L469.949 178.51L465.67 181.858Z" fill="#DF9F86"/>
<path d="M463.936 182.32C463.242 182.32 462.664 182.204 462.317 181.973C460.351 179.087 462.548 171.351 462.548 171.351L465.67 169.965L469.718 172.505L469.949 177.701C470.065 179.087 469.371 180.472 468.099 181.281C466.942 181.973 465.439 182.435 463.936 182.32Z" fill="#E7B48F"/>
<path d="M468.677 174.006C468.446 173.083 467.636 172.621 466.711 172.736C466.017 172.852 465.324 172.967 464.514 172.967C462.78 172.967 460.467 172.274 460.467 169.503C460.467 166.732 463.82 167.771 463.82 167.771C463.82 167.771 470.643 168.81 473.302 170.773C474.574 171.697 472.493 174.699 471.684 176.316C471.221 177.239 470.643 177.932 469.949 178.625L468.677 174.006Z" fill="#282E53"/>
<path d="M470.874 175.623C470.527 175.277 469.718 175.392 469.255 175.738C468.677 176.2 468.677 176.778 469.024 177.124C469.371 177.47 470.18 177.355 470.643 177.009C471.221 176.662 471.337 175.969 470.874 175.623Z" fill="#E7B48F"/>
<path d="M466.596 187.4C466.596 187.4 459.195 199.524 454.801 227.813C463.705 230.584 477.35 233.587 477.35 233.587C477.35 233.587 485.444 202.988 471.568 185.207C468.677 185.207 466.596 187.4 466.596 187.4Z" fill="#86C0C4"/>
<path d="M454.801 227.698C454.801 227.698 448.556 248.482 448.556 257.95C448.556 267.418 454.801 293.975 454.801 293.975H460.467C460.467 293.975 461.854 275.385 460.12 264.993C459.657 261.876 459.889 258.758 460.698 255.756C463.705 245.248 467.058 231.162 467.058 231.162L454.801 227.698Z" fill="#282E53"/>
<path d="M459.079 229.43C459.079 229.43 457.46 252.061 460.004 260.143C462.548 268.342 471.221 293.975 471.221 293.975H476.309C476.309 293.975 477.581 280.004 473.534 265.224C472.493 261.645 472.724 257.834 473.881 254.255C477.812 242.708 477.465 233.586 477.465 233.586L459.079 229.43Z" fill="#243E5D"/>
<path d="M446.475 230.815C446.243 230.931 445.318 231.392 443.237 231.277C441.387 231.162 437.686 229.891 438.149 231.739C439.768 232.894 441.502 234.51 441.502 234.51C442.543 235.087 444.625 234.856 445.781 234.51L449.481 232.894C449.481 232.894 450.059 231.046 450.059 230.931L449.366 230.469C448.441 230.815 447.4 230.931 446.475 230.815Z" fill="#E7B48F"/>
<path d="M445.781 231.624C445.781 231.624 445.665 231.739 445.55 231.854C445.781 231.97 446.012 232.085 446.243 232.316C447.169 232.432 448.094 232.663 449.134 232.778C449.134 232.201 449.134 231.393 449.134 231.393L443.121 229.083C443.121 229.083 442.543 229.661 443.584 230.469C444.509 231.277 445.781 231.624 445.781 231.624Z" fill="#E7B48F"/>
<path d="M465.67 197.099L464.052 210.609C463.705 213.265 462.548 215.689 460.814 217.537L448.556 230.469L449.713 233.471C449.713 233.471 468.099 224.811 471.452 219.731C474.806 214.65 476.54 198.947 476.54 198.947L465.67 197.099Z" fill="#86C0C4"/>
<path d="M475.615 204.258C474.806 209.223 473.418 216.498 471.337 219.615C468.215 224.349 452.025 232.201 449.944 233.24L448.903 230.584L461.045 217.768C462.895 215.805 464.052 213.38 464.398 210.609L465.092 204.489C464.977 204.374 464.745 204.258 464.63 204.258L463.82 210.493C463.473 213.034 462.433 215.458 460.582 217.306L448.325 230.238L448.209 230.353L449.597 233.817L449.828 233.702C450.638 233.356 468.33 224.927 471.684 219.846C473.881 216.498 475.384 208.877 476.193 203.912C476.078 204.027 475.847 204.143 475.615 204.258Z" fill="#4D888B"/>
<path d="M466.364 185.553L471.221 182.897L471.568 185.207L466.364 187.862V185.553Z" fill="white"/>
<path d="M95.0537 329.769C95.0537 329.769 103.842 337.043 109.393 340.276C113.903 342.932 123.038 344.78 126.276 345.357C126.969 345.472 127.779 345.357 128.357 344.895L131.132 343.048C131.132 343.048 134.255 342.817 134.717 344.78C134.139 346.05 133.561 346.973 133.098 347.666C132.52 348.474 131.595 348.936 130.554 348.821C126.623 348.705 115.059 348.243 107.08 345.819C97.3664 342.817 87.0747 335.889 87.0747 335.889L95.0537 329.769Z" fill="#DF9F86"/>
<path d="M96.21 325.035L94.2442 330.346L88.6936 327.922L93.666 320.532L96.21 325.035Z" fill="#DF9F86"/>
<path d="M97.482 326.767C98.1759 327.113 98.7541 327.229 99.2166 327.113C102.339 325.381 103.726 317.183 103.726 317.183L101.414 314.528L96.5569 314.989L94.0129 319.724C93.3191 320.994 93.3191 322.495 94.0129 323.88C94.8224 325.15 96.0944 326.19 97.482 326.767Z" fill="#E7B48F"/>
<path d="M95.7475 318.107C96.3257 317.414 97.1351 315.451 97.9446 316.029C98.5228 316.375 100.489 317.53 101.182 317.876C102.801 318.684 106.039 319.493 107.311 316.952C107.889 315.682 107.196 314.066 106.617 313.373C106.039 312.68 105.114 312.334 104.305 312.218C102.223 311.987 99.101 312.218 98.1759 311.525C96.6726 310.371 94.5911 310.602 94.0129 311.987C93.3191 313.488 92.9722 316.029 93.0878 317.761C93.0878 318.8 93.3191 319.723 93.666 320.763L95.7475 318.107Z" fill="#282E53"/>
<path d="M94.0129 317.414C94.5911 317.299 95.1693 317.645 95.5162 318.338C95.7475 318.915 95.6318 319.608 95.0537 319.724C94.4755 319.839 93.8973 319.493 93.5504 318.8C93.3191 318.222 93.5504 317.53 94.0129 317.414Z" fill="#E7B48F"/>
<path d="M68.3415 427.568C68.3415 427.568 68.3415 430.917 75.0485 432.88C76.4361 433.342 75.9736 433.688 76.2048 434.265C74.0077 434.265 68.5728 434.265 68.5728 434.265L65.5662 430.917L64.6411 431.725L62.444 429.531C62.444 429.531 63.4847 426.414 65.1037 426.414C66.4913 426.991 68.3415 427.568 68.3415 427.568Z" fill="#282E53"/>
<path d="M69.6135 424.682L68.3415 427.568C67.1851 427.915 66.0288 427.568 65.2193 426.644L65.1037 426.529L66.1444 423.642L69.6135 424.682Z" fill="#E7B48F"/>
<path d="M89.1562 325.15C74.3546 323.534 60.7095 351.13 60.7095 351.13L78.6332 363.716C78.6332 363.716 97.9446 346.05 94.8224 330.462C94.2442 327.691 91.9315 325.381 89.1562 325.15Z" fill="#BBD8C8"/>
<path d="M57.7029 429.185C57.7029 429.185 59.7844 431.148 64.6411 432.418C65.6819 432.649 66.8382 432.302 66.8382 434.034C64.5255 434.034 60.9407 434.034 60.9407 434.034L56.084 433.226V434.034H53.4243C53.4243 434.034 52.7305 429.762 54.2338 429.185C55.7371 429.185 57.7029 429.185 57.7029 429.185Z" fill="#282E53"/>
<path d="M57.1247 426.067L57.7029 429.185C56.7778 429.878 55.5058 429.877 54.4651 429.3L54.2338 429.185L54.4651 426.067H57.1247Z" fill="#E7B48F"/>
<path d="M78.6332 363.716C78.6332 363.716 88.4624 381.497 87.1903 390.85C85.9183 400.203 68.9197 426.413 68.9197 426.413L65.7975 425.028C65.7975 425.028 69.2666 405.283 72.3888 396.046C73.1983 393.852 73.5452 391.658 72.6201 389.58C68.1102 380.458 62.5596 365.332 62.5596 365.332L71.5793 358.635L78.6332 363.716Z" fill="#282E53"/>
<path d="M74.3546 360.714L57.7029 427.684H54.1181C54.1181 427.684 51.3429 408.401 54.4651 395.122C54.9276 393.16 55.0432 391.081 54.812 389.003C52.9618 369.605 54.1181 357.596 60.7095 351.13L74.3546 360.714Z" fill="#243E5D"/>
<path d="M171.605 272.383C170.912 278.964 173.224 285.084 177.272 289.472H121.303V419.717C121.303 426.76 126.97 432.418 134.023 432.418H251.742C258.796 432.418 264.462 426.76 264.462 419.717V376.302C260.183 381.151 253.823 384.038 246.769 383.576C236.593 382.883 228.268 374.801 227.111 364.755C225.724 351.938 235.784 340.969 248.273 340.969C254.748 340.969 260.415 343.856 264.346 348.359V289.472H208.378C211.963 285.661 214.16 280.465 214.16 274.808C214.16 262.222 203.174 252.061 190.223 253.562C180.625 254.601 172.646 262.568 171.605 272.383Z" fill="#243E5D"/>
<path d="M93.4347 334.965C93.4347 334.965 101.414 343.048 106.617 346.858C110.78 349.976 119.684 352.631 122.922 353.555C123.616 353.786 124.425 353.67 125.004 353.324L127.895 351.823C127.895 351.823 131.479 352.747 131.364 353.901C130.67 355.056 129.976 355.98 129.514 356.557C128.82 357.25 127.895 357.596 126.854 357.481C122.922 357.019 111.474 355.402 103.842 352.169C94.4755 348.244 84.8776 340.277 84.8776 340.277L93.4347 334.965Z" fill="#E7B48F"/>
<path d="M226.186 306.214L218.092 327.114L213.119 323.303L224.336 304.367L226.186 306.214Z" fill="#DF9F86"/>
<path d="M225.145 299.864C224.683 300.441 224.336 301.249 224.452 302.058L224.105 305.06L224.567 305.522L225.955 306.792C225.955 306.214 225.839 306.792 225.839 306.792L228.152 302.866C228.152 302.866 230.927 301.134 227.458 298.478C227.111 298.247 226.649 298.132 226.302 298.363C225.377 299.055 225.145 299.864 225.145 299.864Z" fill="#DF9F86"/>
<path d="M208.494 342.239C214.275 334.503 218.207 327.113 218.207 327.113L213.813 322.148L208.494 328.384V342.239Z" fill="#2F666A"/>
<path d="M196.005 432.88L198.549 433.342C199.127 430.224 206.99 415.214 207.684 407.362C208.378 398.702 210.459 389.118 210.459 389.118L201.902 386.578C201.902 386.578 199.705 386.578 202.134 404.129C196.699 411.172 195.195 426.991 196.005 432.88Z" fill="#DF9F86"/>
<path d="M202.249 380.112C202.249 380.112 204.215 392.12 206.99 405.053C204.099 412.789 208.494 434.496 208.609 434.496C208.956 434.15 210.459 436.113 210.459 436.113C210.459 436.113 213.697 416.946 214.391 408.286C215.085 399.626 215.316 389.118 215.316 389.118L202.249 380.112Z" fill="#E7B48F"/>
<path d="M208.262 433.226C208.262 433.226 206.99 434.265 207.222 435.535C207.453 436.806 207.8 439.923 207.8 439.923H209.072V437.036C209.072 436.805 211.731 439.923 212.194 439.923H218.785C218.785 439.923 219.248 437.96 215.316 437.383C211.5 436.805 208.262 433.226 208.262 433.226Z" fill="#243E5D"/>
<path d="M198.78 431.148L198.549 433.919C198.549 434.496 198.664 435.074 199.011 435.536C199.358 436.113 199.936 436.806 200.977 437.614C199.011 438.191 197.277 436.113 196.352 434.612C195.889 433.919 195.774 433.111 195.889 432.302L196.236 430.109L198.78 431.148Z" fill="#DF9F86"/>
<path d="M196.005 432.649C196.005 432.649 194.27 432.764 194.039 434.034C193.808 435.305 192.998 437.96 192.998 437.96L193.923 438.653L195.195 436.113C195.195 436.113 197.971 439.923 198.433 440.039H205.603C205.603 440.039 205.603 437.614 201.093 437.498C196.93 437.383 196.005 432.649 196.005 432.649Z" fill="#282E53"/>
<path d="M234.628 305.175L226.533 326.074L221.561 322.379L232.777 303.328L234.628 305.175Z" fill="#E7B48F"/>
<path d="M233.587 298.824C233.124 299.402 232.777 300.21 232.893 301.018L232.546 304.02L233.009 304.482L234.396 305.752C234.396 305.175 234.281 305.752 234.281 305.752L236.593 301.827C236.593 301.827 239.369 300.095 235.9 297.439C235.553 297.208 235.09 297.092 234.743 297.323C233.818 298.016 233.587 298.824 233.587 298.824Z" fill="#E7B48F"/>
<path d="M210.344 331.27H205.14L207.222 325.151L211.269 327.691L210.344 331.27Z" fill="#DF9F86"/>
<path d="M217.166 337.736C217.166 337.621 217.051 337.505 217.051 337.275C222.139 330.693 226.533 326.074 226.533 326.074L222.139 321.109L212.31 330.462H209.419C209.419 330.462 205.487 327.922 202.134 331.386C200.862 332.656 200.052 336.12 200.862 339.815C203.174 349.976 201.324 355.403 201.324 355.403L214.622 360.368C214.622 360.368 214.969 351.477 215.085 345.357C215.085 344.202 215.548 343.048 216.126 342.009C217.051 340.854 217.513 339.353 217.166 337.736Z" fill="#4D888B"/>
<path d="M212.194 314.297L203.753 317.299L204.562 323.65C204.562 323.765 204.562 323.88 204.562 323.88C204.678 323.88 204.909 323.996 205.025 323.996C205.025 323.996 205.025 323.996 205.14 323.996C205.14 323.996 205.14 323.996 205.256 323.996C207.222 324.458 208.609 326.074 209.187 327.922C210.344 328.153 211.616 328.153 212.888 327.922C213.697 327.806 214.507 327.46 214.854 327.114C216.588 323.188 212.194 314.297 212.194 314.297Z" fill="#E7B48F"/>
<path d="M211.963 319.608C209.65 320.763 210.228 332.425 209.881 340.392C209.65 344.664 206.412 348.244 202.134 348.936C199.127 349.398 195.774 349.514 193.808 348.359C195.08 347.32 202.249 336.813 199.936 322.957C199.59 321.109 199.59 316.029 202.712 313.258C206.181 310.14 213.235 314.181 213.235 314.181C213.235 314.181 215.085 318.107 211.963 319.608Z" fill="#282E53"/>
<path d="M214.969 355.172C214.969 355.172 216.704 364.178 216.704 369.605C216.704 372.607 216.01 391.081 216.01 391.081C216.01 391.081 203.406 392.005 200.862 392.005C200.283 376.764 196.814 376.302 196.814 369.258C196.814 366.141 198.433 362.677 199.59 360.483C200.515 358.867 200.977 357.827 201.324 355.518L201.44 355.287L214.969 355.172Z" fill="#F3D154"/>
<path d="M342.054 329.538C342.054 329.538 350.727 346.281 350.149 349.975C349.571 353.67 342.054 360.021 342.054 360.021L340.898 357.943L344.714 349.398L339.857 335.311L342.054 329.538Z" fill="#E7B48F"/>
<path d="M332.688 322.379L333.497 327.229H337.66L338.123 319.839L332.688 322.379Z" fill="#DF9F86"/>
<path d="M324.94 343.509V330C330.375 326.19 334.307 326.536 334.307 326.536C335.232 326.421 335.463 326.421 336.735 326.421C336.735 326.421 345.87 325.728 344.252 340.161C340.667 352.4 342.401 357.827 342.401 357.827C342.401 357.827 332.919 361.753 327.6 358.982C328.756 355.98 326.328 347.551 324.94 343.509Z" fill="#4D888B"/>
<path d="M339.163 325.035C339.163 325.035 342.748 327.113 342.748 330.462C342.748 332.54 341.939 333.81 341.014 335.196C339.51 337.621 339.51 340.738 341.245 343.048C341.245 343.048 341.245 343.163 341.361 343.163C342.054 343.971 342.17 344.895 341.939 345.703C341.245 348.936 336.851 349.398 335.232 346.627C334.654 345.588 333.96 344.433 333.613 342.932C332.919 340.623 333.613 339.122 334.538 338.198C335.347 337.505 335.347 336.235 334.654 335.427C333.266 334.041 331.878 331.963 333.613 330.116C336.504 326.998 337.313 324.111 337.313 324.111L339.163 325.035Z" fill="#282E53"/>
<path d="M347.258 432.764L344.714 433.226C344.136 430.109 336.273 415.098 335.579 407.246C334.885 398.587 332.803 389.003 332.803 389.003L341.361 386.463C341.361 386.463 343.558 386.463 341.129 404.013C346.449 411.057 347.952 426.991 347.258 432.764Z" fill="#DF9F86"/>
<path d="M328.872 311.064L336.735 310.717L338.123 316.144C338.123 316.26 338.123 316.26 338.123 316.375C338.007 316.491 337.892 316.491 337.776 316.606C336.388 317.645 335.694 319.377 335.81 321.109C334.885 321.686 333.844 322.033 332.803 322.264C332.11 322.379 331.416 322.379 330.953 322.264C328.178 319.724 328.872 311.064 328.872 311.064Z" fill="#E7B48F"/>
<path d="M339.164 323.88C337.082 324.111 340.32 323.88 337.082 324.111C336.966 322.379 331.416 317.876 330.375 316.952C327.715 314.643 327.831 311.872 327.831 311.872C327.831 311.872 333.15 306.099 336.62 307.369C339.395 308.293 340.32 310.486 340.667 311.987C341.245 313.258 342.054 315.451 339.164 323.88Z" fill="#282E53"/>
<path d="M340.898 380.112C340.898 380.112 338.932 392.12 336.157 405.053C339.048 412.789 334.654 434.496 334.538 434.496C334.191 434.15 332.688 436.113 332.688 436.113C332.688 436.113 329.45 416.946 328.756 408.286C328.062 399.626 326.906 389.118 326.906 389.118L340.898 380.112Z" fill="#E7B48F"/>
<path d="M334.885 433.226C334.885 433.226 336.157 434.265 335.926 435.535C335.694 436.806 335.347 439.923 335.347 439.923H334.075V437.036C334.075 436.805 331.416 439.923 330.953 439.923H324.362C324.362 439.923 323.899 437.96 327.831 437.383C331.763 436.69 334.885 433.226 334.885 433.226Z" fill="#243E5D"/>
<path d="M337.082 325.035H339.048C339.51 325.035 339.857 324.689 339.857 324.227V323.996C339.857 323.534 339.51 323.188 339.048 323.188H337.082C336.62 323.188 336.273 323.534 336.273 323.996V324.227C336.273 324.689 336.62 325.035 337.082 325.035Z" fill="#F6DA77"/>
<path d="M327.831 356.095C327.831 356.095 325.634 368.219 325.634 374.339C325.634 377.687 327.137 391.774 327.137 391.774C327.137 391.774 339.857 392.12 342.401 392.12C342.748 382.075 346.449 375.493 346.449 367.526C346.449 361.868 341.476 356.903 341.476 356.903L327.831 356.095Z" fill="#243E5D"/>
<path d="M303.663 342.008L304.241 342.124C305.397 342.47 306.323 343.394 306.67 344.549L306.785 345.011C306.785 345.011 311.758 346.742 317.308 347.435C322.974 331.27 324.94 330.115 324.94 330.115C324.94 330.115 328.641 331.27 328.641 335.658C328.641 339.353 326.212 349.86 321.471 353.209C320.199 354.132 318.464 354.248 317.077 353.555C309.445 349.976 304.125 346.858 304.125 346.858L298.344 343.74L300.888 342.355C301.697 341.777 302.738 341.662 303.663 342.008Z" fill="#E7B48F"/>
<path d="M344.367 431.032L344.598 433.804C344.598 434.381 344.483 434.958 344.136 435.42C343.789 435.997 343.211 436.69 342.17 437.498C344.136 438.076 345.87 435.997 346.796 434.496C347.258 433.804 347.374 432.995 347.258 432.187L346.911 429.993L344.367 431.032Z" fill="#DF9F86"/>
<path d="M347.258 432.533C347.258 432.533 348.993 432.649 349.224 433.919C349.455 435.189 350.265 437.845 350.265 437.845L349.34 438.538L348.068 435.997C348.068 435.997 345.292 439.808 344.83 439.923H337.66C337.66 439.923 337.66 437.498 342.17 437.383C346.217 437.268 347.258 432.533 347.258 432.533Z" fill="#282E53"/>
<defs>
<linearGradient id="paint0_linear_6010_18332" x1="500.119" y1="116.224" x2="537.665" y2="116.224" gradientUnits="userSpaceOnUse">
<stop offset="6.3e-07" stop-color="#F3F8F7"/>
<stop offset="1" stop-color="#CAE3EE"/>
</linearGradient>
<linearGradient id="paint1_linear_6010_18332" x1="500.119" y1="127.564" x2="530.397" y2="127.564" gradientUnits="userSpaceOnUse">
<stop offset="6.3e-07" stop-color="#F3F8F7"/>
<stop offset="1" stop-color="#CAE3EE"/>
</linearGradient>
<linearGradient id="paint2_linear_6010_18332" x1="183.409" y1="73.9137" x2="229.833" y2="73.9137" gradientUnits="userSpaceOnUse">
<stop offset="6.3e-07" stop-color="#F3F8F7"/>
<stop offset="1" stop-color="#CAE3EE"/>
</linearGradient>
<linearGradient id="paint3_linear_6010_18332" x1="173.927" y1="75.1804" x2="229.535" y2="75.1804" gradientUnits="userSpaceOnUse">
<stop offset="6.3e-07" stop-color="#F3F8F7"/>
<stop offset="1" stop-color="#CAE3EE"/>
</linearGradient>
</defs>
</svg>
